<svg xmlns="http://www.w3.org/2000/svg" xmlns:xlink="http://www.w3.org/1999/xlink" width="2000" zoomAndPan="magnify" viewBox="0 0 1500 1499.999933" height="2000" preserveAspectRatio="xMidYMid meet" version="1.0"><defs><g/><clipPath id="e9a2dc8a5c"><path d="M 43.796875 56.933594 L 1429.796875 56.933594 L 1429.796875 1442.933594 L 43.796875 1442.933594 Z M 43.796875 56.933594 " clip-rule="nonzero"/></clipPath></defs><rect x="-150" width="1800" fill="#ffffff" y="-149.999993" height="1799.99992" fill-opacity="1"/><rect x="-150" width="1800" fill="#ffffff" y="-149.999993" height="1799.99992" fill-opacity="1"/><g clip-path="url(#e9a2dc8a5c)"><path fill="#008037" d="M 1429.925781 750 C 1429.925781 761.339844 1429.644531 772.675781 1429.089844 784.003906 C 1428.53125 795.335938 1427.699219 806.644531 1426.585938 817.929688 C 1425.476562 829.21875 1424.085938 840.472656 1422.421875 851.691406 C 1420.757812 862.910156 1418.820312 874.085938 1416.605469 885.207031 C 1414.394531 896.332031 1411.910156 907.398438 1409.152344 918.398438 C 1406.398438 929.402344 1403.375 940.332031 1400.082031 951.183594 C 1396.789062 962.039062 1393.230469 972.804688 1389.410156 983.484375 C 1385.589844 994.164062 1381.507812 1004.742188 1377.167969 1015.222656 C 1372.828125 1025.703125 1368.230469 1036.066406 1363.382812 1046.320312 C 1358.53125 1056.574219 1353.433594 1066.703125 1348.089844 1076.707031 C 1342.742188 1086.710938 1337.152344 1096.574219 1331.320312 1106.304688 C 1325.488281 1116.035156 1319.421875 1125.613281 1313.121094 1135.042969 C 1306.820312 1144.476562 1300.292969 1153.746094 1293.535156 1162.855469 C 1286.777344 1171.96875 1279.800781 1180.90625 1272.605469 1189.675781 C 1265.410156 1198.441406 1258.003906 1207.027344 1250.386719 1215.433594 C 1242.769531 1223.835938 1234.949219 1232.046875 1226.929688 1240.070312 C 1218.910156 1248.089844 1210.699219 1255.90625 1202.292969 1263.527344 C 1193.890625 1271.144531 1185.304688 1278.550781 1176.535156 1285.746094 C 1167.765625 1292.941406 1158.828125 1299.917969 1149.71875 1306.671875 C 1140.609375 1313.429688 1131.335938 1319.957031 1121.90625 1326.261719 C 1112.476562 1332.5625 1102.894531 1338.628906 1093.167969 1344.460938 C 1083.4375 1350.289062 1073.570312 1355.878906 1063.566406 1361.226562 C 1053.566406 1366.574219 1043.4375 1371.671875 1033.183594 1376.519531 C 1022.929688 1381.371094 1012.5625 1385.964844 1002.085938 1390.304688 C 991.605469 1394.648438 981.027344 1398.726562 970.347656 1402.550781 C 959.667969 1406.371094 948.898438 1409.925781 938.046875 1413.21875 C 927.191406 1416.511719 916.261719 1419.535156 905.261719 1422.292969 C 894.257812 1425.046875 883.195312 1427.53125 872.070312 1429.746094 C 860.945312 1431.957031 849.773438 1433.898438 838.554688 1435.5625 C 827.332031 1437.226562 816.082031 1438.613281 804.792969 1439.726562 C 793.503906 1440.835938 782.195312 1441.671875 770.867188 1442.226562 C 759.539062 1442.785156 748.203125 1443.0625 736.859375 1443.0625 C 725.515625 1443.0625 714.183594 1442.785156 702.851562 1442.226562 C 691.523438 1441.671875 680.214844 1440.835938 668.929688 1439.726562 C 657.640625 1438.613281 646.386719 1437.226562 635.167969 1435.5625 C 623.945312 1433.898438 612.773438 1431.957031 601.648438 1429.746094 C 590.523438 1427.53125 579.460938 1425.046875 568.460938 1422.292969 C 557.457031 1419.535156 546.527344 1416.511719 535.675781 1413.21875 C 524.820312 1409.925781 514.054688 1406.371094 503.375 1402.550781 C 492.695312 1398.726562 482.113281 1394.648438 471.636719 1390.304688 C 461.15625 1385.964844 450.789062 1381.371094 440.535156 1376.519531 C 430.285156 1371.671875 420.15625 1366.574219 410.152344 1361.226562 C 400.148438 1355.878906 390.28125 1350.289062 380.554688 1344.460938 C 370.824219 1338.628906 361.246094 1332.5625 351.8125 1326.261719 C 342.382812 1319.957031 333.113281 1313.429688 324.003906 1306.671875 C 314.890625 1299.917969 305.953125 1292.941406 297.183594 1285.746094 C 288.417969 1278.550781 279.832031 1271.144531 271.425781 1263.527344 C 263.023438 1255.90625 254.808594 1248.089844 246.789062 1240.070312 C 238.769531 1232.046875 230.949219 1223.835938 223.332031 1215.433594 C 215.714844 1207.027344 208.308594 1198.441406 201.113281 1189.675781 C 193.917969 1180.90625 186.941406 1171.96875 180.183594 1162.855469 C 173.429688 1153.746094 166.898438 1144.476562 160.597656 1135.042969 C 154.296875 1125.613281 148.230469 1116.035156 142.398438 1106.304688 C 136.566406 1096.574219 130.980469 1086.710938 125.632812 1076.707031 C 120.285156 1066.703125 115.1875 1056.574219 110.335938 1046.320312 C 105.488281 1036.066406 100.894531 1025.703125 96.550781 1015.222656 C 92.210938 1004.742188 88.128906 994.164062 84.308594 983.484375 C 80.488281 972.804688 76.929688 962.039062 73.640625 951.183594 C 70.347656 940.332031 67.320312 929.402344 64.566406 918.398438 C 61.808594 907.398438 59.324219 896.332031 57.113281 885.207031 C 54.898438 874.085938 52.960938 862.910156 51.296875 851.691406 C 49.632812 840.472656 48.246094 829.21875 47.132812 817.929688 C 46.019531 806.644531 45.1875 795.335938 44.628906 784.003906 C 44.074219 772.675781 43.796875 761.339844 43.796875 750 C 43.796875 738.65625 44.074219 727.320312 44.628906 715.992188 C 45.1875 704.664062 46.019531 693.355469 47.132812 682.066406 C 48.246094 670.777344 49.632812 659.523438 51.296875 648.304688 C 52.960938 637.085938 54.898438 625.914062 57.113281 614.789062 C 59.324219 603.664062 61.808594 592.601562 64.566406 581.597656 C 67.320312 570.59375 70.347656 559.667969 73.640625 548.8125 C 76.929688 537.957031 80.488281 527.191406 84.308594 516.511719 C 88.128906 505.832031 92.210938 495.253906 96.550781 484.773438 C 100.894531 474.296875 105.488281 463.929688 110.335938 453.675781 C 115.1875 443.421875 120.285156 433.292969 125.632812 423.289062 C 130.980469 413.289062 136.566406 403.421875 142.398438 393.691406 C 148.230469 383.964844 154.296875 374.382812 160.597656 364.953125 C 166.898438 355.523438 173.429688 346.25 180.183594 337.140625 C 186.941406 328.03125 193.917969 319.089844 201.113281 310.324219 C 208.308594 301.554688 215.714844 292.96875 223.332031 284.566406 C 230.949219 276.160156 238.769531 267.949219 246.789062 259.929688 C 254.808594 251.90625 263.023438 244.089844 271.425781 236.472656 C 279.832031 228.855469 288.417969 221.449219 297.183594 214.253906 C 305.953125 207.058594 314.890625 200.082031 324.003906 193.324219 C 333.113281 186.566406 342.382812 180.039062 351.8125 173.738281 C 361.246094 167.433594 370.824219 161.367188 380.554688 155.539062 C 390.28125 149.707031 400.148438 144.117188 410.152344 138.769531 C 420.15625 133.421875 430.285156 128.324219 440.535156 123.476562 C 450.789062 118.625 461.15625 114.03125 471.636719 109.691406 C 482.113281 105.351562 492.695312 101.269531 503.375 97.449219 C 514.054688 93.625 524.820312 90.070312 535.675781 86.777344 C 546.527344 83.484375 557.457031 80.460938 568.460938 77.703125 C 579.460938 74.949219 590.523438 72.464844 601.648438 70.25 C 612.773438 68.039062 623.945312 66.101562 635.167969 64.4375 C 646.386719 62.769531 657.640625 61.382812 668.929688 60.273438 C 680.214844 59.160156 691.523438 58.324219 702.851562 57.769531 C 714.183594 57.210938 725.515625 56.933594 736.859375 56.933594 C 748.203125 56.933594 759.539062 57.210938 770.867188 57.769531 C 782.195312 58.324219 793.503906 59.160156 804.792969 60.273438 C 816.078125 61.382812 827.332031 62.769531 838.554688 64.4375 C 849.773438 66.101562 860.945312 68.039062 872.070312 70.25 C 883.195312 72.464844 894.257812 74.949219 905.261719 77.703125 C 916.261719 80.460938 927.191406 83.484375 938.046875 86.777344 C 948.898438 90.070312 959.667969 93.625 970.347656 97.449219 C 981.027344 101.269531 991.605469 105.351562 1002.085938 109.691406 C 1012.5625 114.03125 1022.929688 118.625 1033.183594 123.476562 C 1043.4375 128.324219 1053.566406 133.421875 1063.566406 138.769531 C 1073.570312 144.117188 1083.4375 149.707031 1093.167969 155.539062 C 1102.894531 161.367188 1112.476562 167.433594 1121.90625 173.738281 C 1131.335938 180.039062 1140.609375 186.566406 1149.71875 193.324219 C 1158.828125 200.082031 1167.765625 207.058594 1176.535156 214.253906 C 1185.304688 221.449219 1193.890625 228.855469 1202.292969 236.472656 C 1210.699219 244.089844 1218.910156 251.90625 1226.929688 259.929688 C 1234.949219 267.949219 1242.769531 276.160156 1250.386719 284.566406 C 1258.003906 292.96875 1265.410156 301.554688 1272.605469 310.324219 C 1279.800781 319.089844 1286.777344 328.03125 1293.535156 337.140625 C 1300.292969 346.25 1306.820312 355.523438 1313.121094 364.953125 C 1319.421875 374.382812 1325.488281 383.964844 1331.320312 393.691406 C 1337.152344 403.421875 1342.742188 413.289062 1348.089844 423.289062 C 1353.433594 433.292969 1358.53125 443.421875 1363.382812 453.675781 C 1368.230469 463.929688 1372.828125 474.296875 1377.167969 484.773438 C 1381.507812 495.253906 1385.589844 505.832031 1389.410156 516.511719 C 1393.230469 527.191406 1396.789062 537.957031 1400.082031 548.8125 C 1403.375 559.667969 1406.398438 570.59375 1409.152344 581.597656 C 1411.910156 592.601562 1414.394531 603.664062 1416.605469 614.789062 C 1418.820312 625.914062 1420.757812 637.085938 1422.421875 648.304688 C 1424.085938 659.523438 1425.476562 670.777344 1426.585938 682.066406 C 1427.699219 693.355469 1428.53125 704.664062 1429.089844 715.992188 C 1429.644531 727.320312 1429.925781 738.65625 1429.925781 750 Z M 1429.925781 750 " fill-opacity="1" fill-rule="nonzero"/></g><path fill="#ffffff" d="M 868.402344 1194.015625 L 312.078125 1194.015625 C 306.359375 1194.015625 301.679688 1189.339844 301.679688 1183.617188 L 301.679688 1018.28125 C 301.679688 960.050781 348.992188 912.734375 407.226562 912.734375 L 532.007812 912.734375 C 537.726562 912.734375 542.40625 917.414062 542.40625 923.136719 C 542.40625 928.855469 537.726562 933.535156 532.007812 933.535156 L 407.226562 933.535156 C 360.433594 933.535156 322.476562 971.488281 322.476562 1018.28125 L 322.476562 1173.21875 L 858.003906 1173.21875 L 858.003906 1018.28125 C 858.003906 971.488281 819.527344 933.535156 773.253906 933.535156 L 648.472656 933.535156 C 642.753906 933.535156 638.074219 928.855469 638.074219 923.136719 C 638.074219 917.414062 642.753906 912.734375 648.472656 912.734375 L 773.253906 912.734375 C 831.488281 912.734375 878.800781 960.050781 878.800781 1018.28125 L 878.800781 1183.617188 C 878.800781 1189.339844 874.121094 1194.015625 868.402344 1194.015625 Z M 868.402344 1194.015625 " fill-opacity="1" fill-rule="evenodd"/><path fill="#ffffff" d="M 413.984375 1194.015625 C 408.265625 1194.015625 403.585938 1189.339844 403.585938 1183.617188 L 403.585938 1111.347656 C 403.585938 1105.628906 408.265625 1100.949219 413.984375 1100.949219 C 419.703125 1100.949219 424.382812 1105.628906 424.382812 1111.347656 L 424.382812 1183.617188 C 424.382812 1189.339844 419.703125 1194.015625 413.984375 1194.015625 Z M 413.984375 1194.015625 " fill-opacity="1" fill-rule="evenodd"/><path fill="#ffffff" d="M 766.496094 1194.015625 C 760.777344 1194.015625 756.097656 1189.339844 756.097656 1183.617188 L 756.097656 1111.347656 C 756.097656 1105.628906 760.777344 1100.949219 766.496094 1100.949219 C 772.214844 1100.949219 776.894531 1105.628906 776.894531 1111.347656 L 776.894531 1183.617188 C 776.894531 1189.339844 772.214844 1194.015625 766.496094 1194.015625 Z M 766.496094 1194.015625 " fill-opacity="1" fill-rule="evenodd"/><path fill="#ffffff" d="M 590.242188 1026.601562 C 588.160156 1026.601562 586.082031 1026.082031 584 1024.519531 L 525.769531 983.445312 C 523.167969 981.886719 521.609375 978.246094 521.609375 975.128906 L 521.609375 877.902344 C 521.609375 871.660156 526.289062 867.503906 532.007812 867.503906 C 537.726562 867.503906 542.40625 871.660156 542.40625 877.902344 L 542.40625 969.929688 L 590.242188 1003.722656 L 638.074219 969.929688 L 638.074219 877.902344 C 638.074219 871.660156 642.753906 867.503906 648.472656 867.503906 C 654.191406 867.503906 658.871094 871.660156 658.871094 877.902344 L 658.871094 975.128906 C 658.871094 978.246094 657.3125 981.886719 654.191406 983.445312 L 595.960938 1024.519531 C 594.398438 1026.082031 592.320312 1026.601562 590.242188 1026.601562 Z M 590.242188 1026.601562 " fill-opacity="1" fill-rule="evenodd"/><path fill="#ffd400" d="M 483.136719 730.242188 C 471.695312 730.242188 460.257812 728.679688 449.339844 725.5625 C 443.621094 724.003906 440.5 717.761719 442.0625 712.5625 C 443.621094 706.84375 449.339844 703.726562 455.058594 705.285156 C 463.898438 707.882812 473.777344 709.445312 483.136719 709.445312 C 538.765625 709.445312 584 664.210938 584 609.097656 C 584 600.777344 582.960938 592.980469 580.882812 585.703125 C 579.839844 579.980469 582.960938 574.261719 588.679688 573.222656 C 594.398438 571.664062 600.117188 575.304688 601.160156 581.023438 C 603.238281 589.859375 604.796875 599.21875 604.796875 609.097656 C 604.796875 675.648438 550.207031 730.242188 483.136719 730.242188 Z M 483.136719 730.242188 " fill-opacity="1" fill-rule="evenodd"/><path fill="#ffd400" d="M 653.671875 677.730469 C 627.675781 677.730469 602.71875 669.410156 581.921875 653.8125 C 577.242188 650.691406 576.203125 643.933594 579.320312 639.253906 C 582.960938 635.09375 589.199219 634.054688 593.878906 637.175781 C 611.558594 650.171875 631.835938 656.929688 653.671875 656.929688 C 670.828125 656.929688 687.46875 652.253906 702.023438 644.453125 C 707.222656 641.332031 713.464844 643.414062 716.582031 648.613281 C 719.183594 653.292969 717.101562 659.53125 712.421875 662.652344 C 694.226562 672.53125 673.949219 677.730469 653.671875 677.730469 Z M 653.671875 677.730469 " fill-opacity="1" fill-rule="evenodd"/><path fill="#ffffff" d="M 940.671875 389.167969 L 788.332031 389.167969 C 782.613281 389.167969 777.933594 384.488281 777.933594 378.769531 C 777.933594 373.050781 782.613281 368.371094 788.332031 368.371094 L 940.671875 368.371094 C 946.390625 368.371094 951.070312 373.050781 951.070312 378.769531 C 951.070312 384.488281 946.390625 389.167969 940.671875 389.167969 Z M 940.671875 357.972656 L 788.332031 357.972656 C 782.613281 357.972656 777.933594 353.292969 777.933594 347.574219 C 777.933594 341.335938 782.613281 337.175781 788.332031 337.175781 L 940.671875 337.175781 C 946.390625 337.175781 951.070312 341.335938 951.070312 347.574219 C 951.070312 353.292969 946.390625 357.972656 940.671875 357.972656 Z M 940.671875 357.972656 " fill-opacity="1" fill-rule="evenodd"/><path fill="#ffd400" d="M 937.550781 863.863281 L 791.453125 863.863281 C 785.734375 863.863281 781.054688 859.183594 781.054688 853.464844 C 781.054688 847.746094 785.734375 843.066406 791.453125 843.066406 L 937.550781 843.066406 C 943.273438 843.066406 947.949219 847.746094 947.949219 853.464844 C 947.949219 859.183594 943.273438 863.863281 937.550781 863.863281 Z M 937.550781 832.667969 L 791.453125 832.667969 C 785.734375 832.667969 781.054688 827.988281 781.054688 822.269531 C 781.054688 816.550781 785.734375 811.871094 791.453125 811.871094 L 937.550781 811.871094 C 943.273438 811.871094 947.949219 816.550781 947.949219 822.269531 C 947.949219 827.988281 943.273438 832.667969 937.550781 832.667969 Z M 937.550781 832.667969 " fill-opacity="1" fill-rule="evenodd"/><path fill="#ffd400" d="M 901.15625 593.5 L 791.453125 593.5 C 785.734375 593.5 781.054688 588.820312 781.054688 583.101562 C 781.054688 577.382812 785.734375 572.703125 791.453125 572.703125 L 901.15625 572.703125 C 906.875 572.703125 911.554688 577.382812 911.554688 583.101562 C 911.554688 588.820312 906.875 593.5 901.15625 593.5 Z M 864.242188 561.265625 L 791.453125 561.265625 C 785.734375 561.265625 781.054688 556.585938 781.054688 550.867188 C 781.054688 545.148438 785.734375 540.46875 791.453125 540.46875 L 864.242188 540.46875 C 869.960938 540.46875 874.640625 545.148438 874.640625 550.867188 C 874.640625 556.585938 869.960938 561.265625 864.242188 561.265625 Z M 864.242188 561.265625 " fill-opacity="1" fill-rule="evenodd"/><path fill="#ffffff" d="M 901.15625 656.410156 L 791.453125 656.410156 C 785.734375 656.410156 781.054688 651.730469 781.054688 646.011719 C 781.054688 640.292969 785.734375 635.613281 791.453125 635.613281 L 901.15625 635.613281 C 906.875 635.613281 911.554688 640.292969 911.554688 646.011719 C 911.554688 651.730469 906.875 656.410156 901.15625 656.410156 Z M 882.441406 623.65625 L 791.453125 623.65625 C 785.734375 623.65625 781.054688 618.976562 781.054688 613.257812 C 781.054688 607.539062 785.734375 602.859375 791.453125 602.859375 L 882.441406 602.859375 C 888.160156 602.859375 892.839844 607.539062 892.839844 613.257812 C 892.839844 618.976562 888.160156 623.65625 882.441406 623.65625 Z M 882.441406 623.65625 " fill-opacity="1" fill-rule="evenodd"/><path fill="#ffd400" d="M 1035.300781 1081.191406 C 1010.34375 1081.191406 986.425781 1071.3125 968.75 1053.636719 C 951.070312 1035.4375 941.191406 1012.042969 941.191406 986.566406 C 941.191406 961.609375 951.070312 937.691406 968.75 920.015625 C 986.425781 902.335938 1010.34375 892.460938 1035.300781 892.460938 C 1060.773438 892.460938 1084.171875 902.335938 1102.371094 920.015625 C 1138.765625 956.929688 1138.765625 1016.722656 1102.371094 1053.636719 C 1084.171875 1071.3125 1060.773438 1081.191406 1035.300781 1081.191406 Z M 1035.300781 913.257812 C 1016.0625 913.257812 997.34375 921.054688 983.304688 935.09375 C 969.789062 948.609375 961.988281 967.328125 961.988281 986.566406 C 961.988281 1006.324219 969.789062 1025.039062 983.304688 1038.558594 C 997.34375 1052.597656 1016.0625 1060.394531 1035.300781 1060.394531 C 1055.054688 1060.394531 1073.773438 1052.597656 1087.292969 1038.558594 C 1115.886719 1009.960938 1115.886719 963.6875 1087.292969 935.09375 C 1073.773438 921.054688 1055.054688 913.257812 1035.300781 913.257812 Z M 1035.300781 913.257812 " fill-opacity="1" fill-rule="evenodd"/><path fill="#ffd400" d="M 976.027344 1056.757812 C 973.425781 1056.757812 970.828125 1055.714844 968.75 1053.636719 C 964.589844 1049.476562 964.589844 1042.71875 968.75 1038.558594 L 1087.292969 920.015625 C 1091.449219 915.855469 1098.210938 915.855469 1102.371094 920.015625 C 1106.007812 924.175781 1106.007812 930.933594 1102.371094 935.09375 L 983.304688 1053.636719 C 981.746094 1055.714844 978.625 1056.757812 976.027344 1056.757812 Z M 976.027344 1056.757812 " fill-opacity="1" fill-rule="evenodd"/><path fill="#ffd400" d="M 1063.894531 873.742188 C 1054.015625 873.742188 1043.617188 871.140625 1035.300781 865.941406 C 1021.78125 858.144531 1011.902344 845.664062 1008.261719 830.585938 C 1004.101562 815.507812 1006.183594 799.910156 1013.980469 786.394531 L 1063.894531 700.085938 C 1074.292969 681.886719 1093.53125 670.96875 1114.328125 670.96875 C 1124.207031 670.96875 1134.605469 673.570312 1143.445312 678.769531 C 1171 694.886719 1180.359375 730.242188 1164.242188 757.796875 L 1114.328125 844.625 C 1103.929688 862.824219 1084.691406 873.742188 1063.894531 873.742188 Z M 1114.328125 691.765625 C 1100.808594 691.765625 1088.332031 699.046875 1082.09375 710.484375 L 1031.660156 796.792969 C 1026.980469 805.632812 1025.421875 815.507812 1028.019531 825.386719 C 1030.621094 834.746094 1036.859375 843.066406 1045.699219 847.746094 C 1050.898438 851.382812 1057.65625 852.945312 1063.894531 852.945312 C 1077.414062 852.945312 1089.890625 845.664062 1096.652344 834.226562 L 1146.5625 747.398438 C 1156.960938 729.722656 1150.722656 706.84375 1133.046875 696.964844 C 1127.328125 693.328125 1120.566406 691.765625 1114.328125 691.765625 Z M 1114.328125 691.765625 " fill-opacity="1" fill-rule="evenodd"/><path fill="#ffd400" d="M 1130.445312 806.671875 C 1128.886719 806.671875 1126.804688 806.152344 1125.246094 805.109375 L 1042.578125 757.277344 C 1037.898438 754.679688 1035.820312 748.4375 1038.9375 743.238281 C 1041.539062 738.558594 1048.296875 736.480469 1052.976562 739.601562 L 1135.644531 786.914062 C 1140.84375 790.03125 1142.402344 796.273438 1139.285156 801.472656 C 1137.726562 804.589844 1134.085938 806.671875 1130.445312 806.671875 Z M 1130.445312 806.671875 " fill-opacity="1" fill-rule="evenodd"/><path stroke-linecap="butt" transform="matrix(0.519928, 0, 0, 0.519928, 43.79565, 56.93428)" fill-opacity="1" fill="#ffffff" fill-rule="evenodd" stroke-linejoin="miter" d="M 1403.997095 1602.999233 C 1373.997464 1602.999233 1349.001528 1578.003297 1349.001528 1548.003667 L 1349.001528 1438.996744 C 1349.001528 1421.002976 1357.002933 1405.999404 1370.999755 1395.000291 L 1508.999559 1290.997063 C 1517.000963 1286.000881 1526.001603 1286.000881 1532.996258 1290.997063 L 1589.99781 1334.001793 C 1595.001505 1337.998739 1597.999215 1344.00167 1597.999215 1349.997088 C 1597.999215 1356.00002 1595.001505 1362.002951 1589.99781 1365.999896 L 1458.000938 1465.998665 L 1458.000938 1548.003667 C 1458.000938 1578.003297 1432.997489 1602.999233 1403.997095 1602.999233 Z M 1520.997908 1332.00332 L 1394.996454 1426.998394 C 1390.999509 1430.003616 1389.001036 1434.000562 1389.001036 1438.996744 L 1389.001036 1548.003667 C 1389.001036 1555.997558 1396.003204 1562.000489 1403.997095 1562.000489 C 1410.999263 1562.000489 1418.00143 1555.997558 1418.00143 1548.003667 L 1418.00143 1455.998789 C 1418.00143 1448.996621 1420.999139 1443.001203 1426.002834 1440.003493 L 1545.002121 1349.997088 Z M 1635.001013 1326.999625 C 1630.996554 1326.999625 1626.999609 1326.000389 1623.002663 1323.00268 L 1566.001111 1279.99795 C 1560.997416 1276.001004 1557.999707 1270.997309 1557.999707 1264.002655 C 1557.999707 1257.999723 1560.997416 1251.996792 1566.001111 1247.999846 L 1698.99722 1149.000314 L 1698.99722 938.003662 L 1567.000347 845.998784 C 1561.996652 842.001839 1557.999707 835.998908 1557.999707 828.99674 C 1557.999707 823.001322 1561.996652 816.99839 1567.000347 813.001445 L 1626.999609 771.003464 C 1633.00254 765.999769 1643.002417 765.999769 1649.997072 771.003464 L 1783.99993 864.999302 C 1799.003502 875.998415 1806.997393 892.001223 1806.997393 910.002504 L 1806.997393 1176.002235 C 1806.997393 1192.996767 1800.002738 1208.000339 1785.998403 1218.999452 L 1646.999363 1323.00268 C 1644.001654 1326.000389 1639.997195 1326.999625 1635.001013 1326.999625 Z M 1612.00355 1264.002655 L 1635.001013 1281.996423 L 1762.001704 1187.001349 C 1765.998649 1184.003639 1766.997886 1179.999181 1766.997886 1176.002235 L 1766.997886 910.002504 C 1766.997886 904.99881 1764.999413 901.001864 1761.002467 897.996642 L 1637.998722 812.002208 L 1613.002786 828.99674 L 1730.0036 911.001741 C 1735.999018 914.998686 1738.996728 921.001618 1738.996728 927.996272 L 1738.996728 1159.000191 C 1738.996728 1165.003122 1735.999018 1170.99854 1731.002836 1175.002999 Z M 1518.999436 807.99775 C 1515.00249 807.99775 1510.998032 805.999277 1507.001086 804.000804 L 1367.002809 706.000508 C 1351.999238 695.001395 1343.997833 678.998586 1343.997833 660.997305 L 1343.997833 533.996615 C 1343.997833 503.996984 1368.002046 480.000285 1398.001677 480.000285 C 1428.001307 480.000285 1451.998007 503.996984 1451.998007 533.996615 L 1451.998007 633.00366 L 1589.99781 728.997971 C 1595.001505 733.002429 1597.999215 738.997848 1597.999215 746.000015 C 1597.999215 752.002947 1595.001505 757.998365 1589.99781 762.002824 L 1529.998549 804.000804 C 1527.00084 805.999277 1522.996381 807.99775 1518.999436 807.99775 Z M 1398.001677 519.999792 C 1390.000272 519.999792 1383.997341 526.002724 1383.997341 533.996615 L 1383.997341 660.997305 C 1383.997341 666.001 1386.003327 669.997946 1390.000272 673.003168 L 1518.999436 763.00206 L 1543.003648 746.000015 L 1420.999139 659.998069 C 1415.003721 656.001123 1411.998499 649.998192 1411.998499 644.002774 L 1411.998499 533.996615 C 1411.998499 526.002724 1406.003081 519.999792 1398.001677 519.999792 Z M 1398.001677 519.999792 " stroke="#ffffff" stroke-width="3" stroke-opacity="1" stroke-miterlimit="4"/><path stroke-linecap="butt" transform="matrix(0.519928, 0, 0, 0.519928, 43.79565, 56.93428)" fill-opacity="1" fill="#ffffff" fill-rule="evenodd" stroke-linejoin="miter" d="M 1753.001063 1602.999233 C 1723.001432 1602.999233 1698.99722 1578.003297 1698.99722 1548.003667 L 1698.99722 1465.998665 L 1370.999755 1218.999452 C 1357.002933 1208.000339 1349.001528 1192.996767 1349.001528 1176.002235 L 1349.001528 910.002504 C 1349.001528 892.001223 1358.002169 875.998415 1372.998228 864.999302 L 1705.000151 633.00366 L 1705.000151 533.996615 C 1705.000151 503.996984 1728.996851 480.000285 1758.996481 480.000285 C 1789.003625 480.000285 1813.000324 503.996984 1813.000324 533.996615 L 1813.000324 660.997305 C 1813.000324 678.998586 1804.99892 695.001395 1790.002862 706.000508 L 1458.000938 938.003662 L 1458.000938 1149.000314 L 1785.998403 1395.000291 C 1800.002738 1405.999404 1806.997393 1421.002976 1806.997393 1438.996744 L 1806.997393 1548.003667 C 1806.997393 1578.003297 1783.000694 1602.999233 1753.001063 1602.999233 Z M 1758.996481 519.999792 C 1751.00259 519.999792 1744.999659 526.002724 1744.999659 533.996615 L 1744.999659 644.002774 C 1744.999659 649.998192 1742.00195 656.001123 1735.999018 659.998069 L 1394.996454 897.996642 C 1390.999509 901.001864 1389.001036 904.99881 1389.001036 910.002504 L 1389.001036 1176.002235 C 1389.001036 1179.999181 1390.999509 1184.003639 1394.996454 1187.001349 L 1731.002836 1440.003493 C 1735.999018 1443.001203 1738.996728 1448.996621 1738.996728 1455.998789 L 1738.996728 1548.003667 C 1738.996728 1555.997558 1744.999659 1562.000489 1753.001063 1562.000489 C 1761.002467 1562.000489 1766.997886 1555.997558 1766.997886 1548.003667 L 1766.997886 1438.996744 C 1766.997886 1434.000562 1765.998649 1430.003616 1762.001704 1426.998394 L 1426.002834 1175.002999 C 1420.999139 1170.99854 1418.00143 1165.003122 1418.00143 1159.000191 L 1418.00143 927.996272 C 1418.00143 921.001618 1420.999139 914.998686 1426.002834 911.001741 L 1766.997886 673.003168 C 1771.002344 669.997946 1773.000817 666.001 1773.000817 660.997305 L 1773.000817 533.996615 C 1773.000817 526.002724 1766.997886 519.999792 1758.996481 519.999792 Z M 1758.996481 519.999792 " stroke="#ffffff" stroke-width="3" stroke-opacity="1" stroke-miterlimit="4"/><path fill="#ffffff" d="M 590.242188 901.816406 C 507.570312 901.816406 439.980469 827.988281 439.980469 737.519531 C 439.980469 646.53125 507.570312 572.703125 590.242188 572.703125 C 672.910156 572.703125 739.980469 646.53125 739.980469 737.519531 C 739.980469 827.988281 672.910156 901.816406 590.242188 901.816406 Z M 590.242188 593.5 C 519.011719 593.5 460.777344 657.972656 460.777344 737.519531 C 460.777344 816.550781 519.011719 881.019531 590.242188 881.019531 C 661.46875 881.019531 719.183594 816.550781 719.183594 737.519531 C 719.183594 657.972656 661.46875 593.5 590.242188 593.5 Z M 590.242188 593.5 " fill-opacity="1" fill-rule="evenodd"/><g fill="#ffffff" fill-opacity="1"><g transform="translate(363.354164, 1299.427476)"><g><path d="M 39.640625 -85.609375 C 48.660156 -85.609375 56.546875 -83.816406 63.296875 -80.234375 C 70.046875 -76.660156 75.269531 -71.640625 78.96875 -65.171875 C 82.664062 -58.710938 84.515625 -51.257812 84.515625 -42.8125 C 84.515625 -34.4375 82.664062 -26.992188 78.96875 -20.484375 C 75.269531 -13.984375 70.023438 -8.941406 63.234375 -5.359375 C 56.441406 -1.785156 48.578125 0 39.640625 0 L 7.5625 0 L 7.5625 -85.609375 Z M 38.296875 -18.046875 C 46.179688 -18.046875 52.316406 -20.195312 56.703125 -24.5 C 61.097656 -28.8125 63.296875 -34.914062 63.296875 -42.8125 C 63.296875 -50.695312 61.097656 -56.832031 56.703125 -61.21875 C 52.316406 -65.613281 46.179688 -67.8125 38.296875 -67.8125 L 28.421875 -67.8125 L 28.421875 -18.046875 Z M 38.296875 -18.046875 "/></g></g></g><g fill="#ffffff" fill-opacity="1"><g transform="translate(452.008445, 1299.427476)"><g><path d="M 28.421875 -56.703125 C 30.859375 -60.441406 33.90625 -63.390625 37.5625 -65.546875 C 41.21875 -67.703125 45.28125 -68.78125 49.75 -68.78125 L 49.75 -46.703125 L 44.03125 -46.703125 C 38.820312 -46.703125 34.914062 -45.582031 32.3125 -43.34375 C 29.71875 -41.113281 28.421875 -37.191406 28.421875 -31.578125 L 28.421875 0 L 7.5625 0 L 7.5625 -68.046875 L 28.421875 -68.046875 Z M 28.421875 -56.703125 "/></g></g></g><g fill="#ffffff" fill-opacity="1"><g transform="translate(504.201064, 1299.427476)"><g><path d="M 74.75 -68.046875 L 74.75 0 L 53.90625 0 L 53.90625 -9.265625 C 51.789062 -6.253906 48.921875 -3.832031 45.296875 -2 C 41.679688 -0.175781 37.679688 0.734375 33.296875 0.734375 C 28.085938 0.734375 23.488281 -0.421875 19.5 -2.734375 C 15.519531 -5.054688 12.429688 -8.410156 10.234375 -12.796875 C 8.046875 -17.191406 6.953125 -22.359375 6.953125 -28.296875 L 6.953125 -68.046875 L 27.6875 -68.046875 L 27.6875 -31.09375 C 27.6875 -26.539062 28.863281 -23.003906 31.21875 -20.484375 C 33.570312 -17.960938 36.742188 -16.703125 40.734375 -16.703125 C 44.796875 -16.703125 48.003906 -17.960938 50.359375 -20.484375 C 52.722656 -23.003906 53.90625 -26.539062 53.90625 -31.09375 L 53.90625 -68.046875 Z M 74.75 -68.046875 "/></g></g></g><g fill="#ffffff" fill-opacity="1"><g transform="translate(586.392261, 1299.427476)"><g><path d="M 33.421875 -69.03125 C 38.210938 -69.03125 42.414062 -68.050781 46.03125 -66.09375 C 49.65625 -64.144531 52.441406 -61.585938 54.390625 -58.421875 L 54.390625 -68.046875 L 75.25 -68.046875 L 75.25 -0.125 C 75.25 6.132812 74.007812 11.804688 71.53125 16.890625 C 69.050781 21.972656 65.269531 26.015625 60.1875 29.015625 C 55.101562 32.023438 48.78125 33.53125 41.21875 33.53125 C 31.132812 33.53125 22.960938 31.148438 16.703125 26.390625 C 10.441406 21.640625 6.863281 15.203125 5.96875 7.078125 L 26.578125 7.078125 C 27.234375 9.671875 28.78125 11.71875 31.21875 13.21875 C 33.65625 14.726562 36.664062 15.484375 40.25 15.484375 C 44.550781 15.484375 47.984375 14.242188 50.546875 11.765625 C 53.109375 9.285156 54.390625 5.320312 54.390625 -0.125 L 54.390625 -9.75 C 52.359375 -6.582031 49.550781 -4.003906 45.96875 -2.015625 C 42.394531 -0.0234375 38.210938 0.96875 33.421875 0.96875 C 27.804688 0.96875 22.722656 -0.472656 18.171875 -3.359375 C 13.617188 -6.242188 10.019531 -10.347656 7.375 -15.671875 C 4.738281 -20.992188 3.421875 -27.148438 3.421875 -34.140625 C 3.421875 -41.140625 4.738281 -47.28125 7.375 -52.5625 C 10.019531 -57.84375 13.617188 -61.90625 18.171875 -64.75 C 22.722656 -67.601562 27.804688 -69.03125 33.421875 -69.03125 Z M 54.390625 -34.03125 C 54.390625 -39.226562 52.945312 -43.332031 50.0625 -46.34375 C 47.175781 -49.351562 43.660156 -50.859375 39.515625 -50.859375 C 35.367188 -50.859375 31.851562 -49.375 28.96875 -46.40625 C 26.082031 -43.4375 24.640625 -39.347656 24.640625 -34.140625 C 24.640625 -28.941406 26.082031 -24.816406 28.96875 -21.765625 C 31.851562 -18.722656 35.367188 -17.203125 39.515625 -17.203125 C 43.660156 -17.203125 47.175781 -18.703125 50.0625 -21.703125 C 52.945312 -24.710938 54.390625 -28.820312 54.390625 -34.03125 Z M 54.390625 -34.03125 "/></g></g></g><g fill="#ffffff" fill-opacity="1"><g transform="translate(669.193142, 1299.427476)"><g><path d="M 38.53125 0.859375 C 32.269531 0.859375 26.660156 -0.15625 21.703125 -2.1875 C 16.742188 -4.226562 12.78125 -7.238281 9.8125 -11.21875 C 6.84375 -15.207031 5.28125 -20.003906 5.125 -25.609375 L 27.3125 -25.609375 C 27.644531 -22.441406 28.742188 -20.023438 30.609375 -18.359375 C 32.484375 -16.691406 34.921875 -15.859375 37.921875 -15.859375 C 41.015625 -15.859375 43.453125 -16.566406 45.234375 -17.984375 C 47.023438 -19.410156 47.921875 -21.382812 47.921875 -23.90625 C 47.921875 -26.019531 47.207031 -27.765625 45.78125 -29.140625 C 44.363281 -30.523438 42.617188 -31.664062 40.546875 -32.5625 C 38.472656 -33.457031 35.523438 -34.472656 31.703125 -35.609375 C 26.179688 -37.316406 21.671875 -39.023438 18.171875 -40.734375 C 14.671875 -42.441406 11.660156 -44.960938 9.140625 -48.296875 C 6.617188 -51.628906 5.359375 -55.976562 5.359375 -61.34375 C 5.359375 -69.3125 8.242188 -75.550781 14.015625 -80.0625 C 19.796875 -84.570312 27.316406 -86.828125 36.578125 -86.828125 C 46.015625 -86.828125 53.617188 -84.570312 59.390625 -80.0625 C 65.160156 -75.550781 68.25 -69.269531 68.65625 -61.21875 L 46.09375 -61.21875 C 45.9375 -63.976562 44.921875 -66.148438 43.046875 -67.734375 C 41.179688 -69.328125 38.785156 -70.125 35.859375 -70.125 C 33.335938 -70.125 31.300781 -69.453125 29.75 -68.109375 C 28.207031 -66.765625 27.4375 -64.832031 27.4375 -62.3125 C 27.4375 -59.550781 28.738281 -57.394531 31.34375 -55.84375 C 33.945312 -54.300781 38.007812 -52.640625 43.53125 -50.859375 C 49.0625 -48.984375 53.554688 -47.191406 57.015625 -45.484375 C 60.472656 -43.773438 63.457031 -41.296875 65.96875 -38.046875 C 68.488281 -34.796875 69.75 -30.609375 69.75 -25.484375 C 69.75 -20.609375 68.507812 -16.175781 66.03125 -12.1875 C 63.550781 -8.207031 59.953125 -5.035156 55.234375 -2.671875 C 50.523438 -0.316406 44.957031 0.859375 38.53125 0.859375 Z M 38.53125 0.859375 "/></g></g></g><g fill="#ffffff" fill-opacity="1"><g transform="translate(744.189564, 1299.427476)"><g><path d="M 3.421875 -34.03125 C 3.421875 -41.101562 4.863281 -47.28125 7.75 -52.5625 C 10.632812 -57.84375 14.65625 -61.90625 19.8125 -64.75 C 24.976562 -67.601562 30.894531 -69.03125 37.5625 -69.03125 C 46.09375 -69.03125 53.222656 -66.789062 58.953125 -62.3125 C 64.691406 -57.84375 68.457031 -51.546875 70.25 -43.421875 L 48.046875 -43.421875 C 46.179688 -48.617188 42.566406 -51.21875 37.203125 -51.21875 C 33.378906 -51.21875 30.328125 -49.734375 28.046875 -46.765625 C 25.773438 -43.796875 24.640625 -39.550781 24.640625 -34.03125 C 24.640625 -28.5 25.773438 -24.25 28.046875 -21.28125 C 30.328125 -18.3125 33.378906 -16.828125 37.203125 -16.828125 C 42.566406 -16.828125 46.179688 -19.429688 48.046875 -24.640625 L 70.25 -24.640625 C 68.457031 -16.671875 64.675781 -10.410156 58.90625 -5.859375 C 53.132812 -1.304688 46.019531 0.96875 37.5625 0.96875 C 30.894531 0.96875 24.976562 -0.453125 19.8125 -3.296875 C 14.65625 -6.140625 10.632812 -10.203125 7.75 -15.484375 C 4.863281 -20.773438 3.421875 -26.957031 3.421875 -34.03125 Z M 3.421875 -34.03125 "/></g></g></g><g fill="#ffffff" fill-opacity="1"><g transform="translate(817.966505, 1299.427476)"><g><path d="M 38.53125 0.96875 C 31.863281 0.96875 25.867188 -0.453125 20.546875 -3.296875 C 15.222656 -6.140625 11.035156 -10.203125 7.984375 -15.484375 C 4.941406 -20.773438 3.421875 -26.957031 3.421875 -34.03125 C 3.421875 -41.019531 4.960938 -47.175781 8.046875 -52.5 C 11.140625 -57.820312 15.367188 -61.90625 20.734375 -64.75 C 26.097656 -67.601562 32.113281 -69.03125 38.78125 -69.03125 C 45.445312 -69.03125 51.460938 -67.601562 56.828125 -64.75 C 62.191406 -61.90625 66.414062 -57.820312 69.5 -52.5 C 72.59375 -47.175781 74.140625 -41.019531 74.140625 -34.03125 C 74.140625 -27.03125 72.570312 -20.867188 69.4375 -15.546875 C 66.3125 -10.222656 62.046875 -6.140625 56.640625 -3.296875 C 51.234375 -0.453125 45.195312 0.96875 38.53125 0.96875 Z M 38.53125 -17.078125 C 42.519531 -17.078125 45.914062 -18.539062 48.71875 -21.46875 C 51.519531 -24.394531 52.921875 -28.582031 52.921875 -34.03125 C 52.921875 -39.476562 51.554688 -43.660156 48.828125 -46.578125 C 46.109375 -49.503906 42.757812 -50.96875 38.78125 -50.96875 C 34.71875 -50.96875 31.34375 -49.523438 28.65625 -46.640625 C 25.976562 -43.753906 24.640625 -39.550781 24.640625 -34.03125 C 24.640625 -28.582031 25.957031 -24.394531 28.59375 -21.46875 C 31.238281 -18.539062 34.550781 -17.078125 38.53125 -17.078125 Z M 38.53125 -17.078125 "/></g></g></g><g fill="#ffffff" fill-opacity="1"><g transform="translate(895.645698, 1299.427476)"><g><path d="M 28.421875 -58.421875 C 30.453125 -61.585938 33.253906 -64.144531 36.828125 -66.09375 C 40.410156 -68.050781 44.597656 -69.03125 49.390625 -69.03125 C 55.003906 -69.03125 60.085938 -67.601562 64.640625 -64.75 C 69.191406 -61.90625 72.785156 -57.84375 75.421875 -52.5625 C 78.066406 -47.28125 79.390625 -41.140625 79.390625 -34.140625 C 79.390625 -27.148438 78.066406 -20.992188 75.421875 -15.671875 C 72.785156 -10.347656 69.191406 -6.242188 64.640625 -3.359375 C 60.085938 -0.472656 55.003906 0.96875 49.390625 0.96875 C 44.671875 0.96875 40.503906 -0.00390625 36.890625 -1.953125 C 33.273438 -3.898438 30.453125 -6.421875 28.421875 -9.515625 L 28.421875 32.4375 L 7.5625 32.4375 L 7.5625 -68.046875 L 28.421875 -68.046875 Z M 58.171875 -34.140625 C 58.171875 -39.347656 56.726562 -43.4375 53.84375 -46.40625 C 50.957031 -49.375 47.398438 -50.859375 43.171875 -50.859375 C 39.023438 -50.859375 35.507812 -49.351562 32.625 -46.34375 C 29.738281 -43.332031 28.296875 -39.226562 28.296875 -34.03125 C 28.296875 -28.820312 29.738281 -24.710938 32.625 -21.703125 C 35.507812 -18.703125 39.023438 -17.203125 43.171875 -17.203125 C 47.316406 -17.203125 50.851562 -18.722656 53.78125 -21.765625 C 56.707031 -24.816406 58.171875 -28.941406 58.171875 -34.140625 Z M 58.171875 -34.140625 "/></g></g></g><g fill="#ffffff" fill-opacity="1"><g transform="translate(978.446625, 1299.427476)"><g><path d="M 71.703125 -35.125 C 71.703125 -33.175781 71.582031 -31.144531 71.34375 -29.03125 L 24.140625 -29.03125 C 24.472656 -24.800781 25.835938 -21.566406 28.234375 -19.328125 C 30.628906 -17.085938 33.578125 -15.96875 37.078125 -15.96875 C 42.273438 -15.96875 45.890625 -18.164062 47.921875 -22.5625 L 70.125 -22.5625 C 68.988281 -18.09375 66.9375 -14.066406 63.96875 -10.484375 C 61 -6.910156 57.273438 -4.109375 52.796875 -2.078125 C 48.328125 -0.046875 43.332031 0.96875 37.8125 0.96875 C 31.144531 0.96875 25.207031 -0.453125 20 -3.296875 C 14.789062 -6.140625 10.722656 -10.203125 7.796875 -15.484375 C 4.878906 -20.773438 3.421875 -26.957031 3.421875 -34.03125 C 3.421875 -41.101562 4.863281 -47.28125 7.75 -52.5625 C 10.632812 -57.84375 14.675781 -61.90625 19.875 -64.75 C 25.082031 -67.601562 31.0625 -69.03125 37.8125 -69.03125 C 44.394531 -69.03125 50.242188 -67.644531 55.359375 -64.875 C 60.484375 -62.113281 64.488281 -58.171875 67.375 -53.046875 C 70.257812 -47.921875 71.703125 -41.945312 71.703125 -35.125 Z M 50.359375 -40.609375 C 50.359375 -44.179688 49.140625 -47.023438 46.703125 -49.140625 C 44.265625 -51.253906 41.21875 -52.3125 37.5625 -52.3125 C 34.0625 -52.3125 31.113281 -51.296875 28.71875 -49.265625 C 26.320312 -47.234375 24.835938 -44.347656 24.265625 -40.609375 Z M 50.359375 -40.609375 "/></g></g></g></svg>